<?xml version="1.0" encoding="utf-8"?>
<!-- Generator: Adobe Illustrator 22.0.1, SVG Export Plug-In . SVG Version: 6.00 Build 0)  -->
<svg version="1.1" id="Layer_1" xmlns="http://www.w3.org/2000/svg" xmlns:xlink="http://www.w3.org/1999/xlink" x="0px" y="0px"
	 viewBox="0 0 947 118.4" style="enable-background:new 0 0 947 118.4;" xml:space="preserve">
<style type="text/css">
	.st0{fill:#20264d;}
</style>
<g>
	<path class="st0" d="M163.5,74.4c-1.9,0-2.5-0.9-2.5-3.7V43.1c0-5.3-2.4-9.6-7-12.3c-3.8-2.3-9.1-3.6-14.9-3.6
		c-6.8,0-12.4,1.3-16.6,3.8c-5.1,3.1-7.8,7.9-8.2,14.4l0,0.4H127l0-0.3c0.5-5.3,4.6-8.2,11.5-8.2c3,0,5.4,0.4,7.2,1.3
		c2.4,1.1,3.6,3,3.6,5.7c0,5.2-4.3,5.7-10.2,6.4c-1.8,0.2-3.7,0.4-5.6,0.8c-5.1,0.6-10.3,1.4-14.2,3.8c-4.6,2.7-6.8,7.1-6.8,13.3
		c0,11.1,9.4,16,18.7,16c5.7,0,13.4-1.6,18.4-6.2c1,4.2,4,6.2,9.4,6.2l7.8-0.1v18.5h12.5V76.6c1.7,2.5,4.3,4.5,7.5,5.9
		c3.1,1.3,6.6,2,10.3,2c7.4,0,13.6-3,17.8-8.7c3.7-5,5.7-12,5.7-19.7c0-8.3-2.2-15.3-6.3-20.4c-4.5-5.6-11.1-8.5-19.2-8.5
		c-3.7,0-7,0.7-9.8,2.1c-2.8,1.4-5.1,3.4-6.7,6.1v-6.7h-11.9v45.9L163.5,74.4z M148.5,64.6c0,4-2.5,6.4-4.5,7.6
		c-2.3,1.4-5.5,2.2-8.4,2.2c-3.9,0-10.6-1.4-10.6-6.5c0-6.2,4.7-7.8,9.4-8.6c1.5-0.3,3-0.4,4.5-0.6c3.6-0.4,7-0.8,9.6-2.3V64.6z
		 M193.6,74.4c-8.9,0-14.7-7.3-14.7-18.6c0-11.9,5.4-18.7,14.7-18.7c10,0,14.5,9.7,14.5,18.7C208.1,64.9,204.3,74.4,193.6,74.4z
		 M223.5,83H236V28.6h-12.5V83z M223.5,22.8H236V10.8h-12.5V22.8z M281.8,55.3c-3.4-2.5-8-3.7-12-4.7c-1.1-0.2-2.2-0.5-3.2-0.7
		c-7.5-1.5-14-2.8-14-7.6c0-4.8,7.2-5.2,9.4-5.2c6.3,0,9.6,2.2,10.6,6.9l0.1,0.3h13l0-0.4c-0.6-5.7-3.3-10.1-7.8-13
		c-3.8-2.5-9-3.8-15-3.8c-3.3,0-9.7,0.4-15.1,3.3c-5.1,2.7-7.7,7-7.7,12.4c0,11,8.4,14.3,17.5,16.2c1.3,0.3,2.5,0.6,3.8,0.8
		c7.1,1.5,13.3,2.8,13.5,7.8c0.1,1.5-0.4,2.8-1.3,3.8c-2.4,2.5-7.5,2.9-10.3,2.9c-7.2,0-11.2-3-11.8-9l0-0.3h-12.5l0,0.4
		c0.2,6.2,2.5,11.1,7.1,14.4c4.2,3.1,10.1,4.7,17.1,4.7c6.3,0,12.1-1.4,16.4-4c5.2-3.1,8-7.9,8-13.8C287.4,61.8,285.6,58,281.8,55.3
		z"/>
	<path class="st0" d="M95,80.9l-39.7,22.9L15.6,80.9l0-45.9l39.7-22.9L95,35V80.9z M52.9,55.5c-8.7,0.5-19.9,3.1-24.1,6
		c-4.9,3.4-6,9.9-2.5,14.6c3.5,4.7,10.4,5.8,15.3,2.5c4.2-2.9,9.2-12.4,13.1-19.5c0,0,0,0,0,0l0,0l0,0c3.7,6.1,11.4,18,15.7,20.5
		c5.2,3.1,12.1,1.6,15.2-3.4c3.2-5,1.5-11.5-3.7-14.5c-4.4-2.6-17-6-25.1-6.3l0,0c3.3-6.1,9.3-17.8,9.4-22.1
		c0.1-5.8-4.8-10.6-10.8-10.7c-6.1-0.1-11.1,4.5-11.2,10.2C44.1,37.1,49.7,49.2,52.9,55.5"/>
	<g>
		<path class="st0" d="M298.2,73.9c0,1.3,0.2,2.3,0.7,3.1c0.9,1.5,2.5,2.3,4.9,2.3c1.5,0,2.7-0.4,3.8-1.2c1.1-0.8,1.6-2,1.6-3.6
			c0-2.1-1-3.4-3-4.1c-1.1-0.4-3-0.6-5.4-0.6v-4.4c2.4,0,4.1-0.2,5.1-0.6c1.7-0.6,2.5-1.8,2.5-3.7c0-1.2-0.4-2.2-1.3-2.9
			c-0.8-0.8-2-1.1-3.6-1.1c-1.8,0-3,0.5-3.9,1.4c-0.8,0.9-1.2,2.2-1.2,3.7h-7c0.1-1.6,0.4-3,1-4.4c0.6-1.2,1.6-2.4,2.9-3.4
			c1-0.7,2.1-1.3,3.5-1.7c1.3-0.4,3-0.6,4.9-0.6c3.6,0,6.5,0.8,8.8,2.3c2.2,1.6,3.3,3.6,3.3,6.3c0,1.8-0.7,3.4-2,4.7
			c-0.8,0.8-1.7,1.3-2.6,1.6c0.7,0,1.7,0.5,2.9,1.5c1.9,1.5,2.9,3.5,2.9,6c0,2.7-1.1,5-3.3,7c-2.2,2-5.5,3-9.9,3
			c-5.4,0-9.1-1.5-11.2-4.4c-1.1-1.5-1.7-3.6-1.8-6.1H298.2z"/>
	</g>
</g>
<g>
	<g>
		<path class="st0" d="M346.2,52.2h24.9v7.6h-16.3V65h14.7v7.2h-14.7v11.1h-8.6V52.2z"/>
		<path class="st0" d="M372.8,52.2h14.7c4.8,0,8,1.3,10.1,3.4c1.8,1.8,2.8,4.2,2.8,7.2v0.1c0,4.8-2.5,7.9-6.4,9.6l7.4,10.8h-10
			l-6.3-9.4h-3.8v9.4h-8.6V52.2z M387.2,67.1c2.9,0,4.6-1.4,4.6-3.7v-0.1c0-2.4-1.8-3.7-4.7-3.7h-5.6v7.5L387.2,67.1L387.2,67.1z"/>
		<path class="st0" d="M401.6,67.8v-0.1c0-8.9,7.2-16.2,16.8-16.2c9.6,0,16.7,7.2,16.7,16.1v0.1c0,8.9-7.2,16.2-16.8,16.2
			C408.7,83.9,401.6,76.8,401.6,67.8z M426.3,67.8v-0.1c0-4.5-3.3-8.4-8-8.4c-4.7,0-7.9,3.8-7.9,8.3v0.1c0,4.5,3.2,8.4,8,8.4
			C423.1,76.1,426.3,72.3,426.3,67.8z"/>
		<path class="st0" d="M437.4,52.2h9.1l7.4,12.1l7.4-12.1h9.1v31.1h-8.6V65.4l-8,12.2h-0.2l-7.9-12.1v17.8h-8.5L437.4,52.2
			L437.4,52.2z"/>
		<path class="st0" d="M483.9,52.2h13.3c7.9,0,12.9,4,12.9,10.9v0.1c0,7.3-5.6,11.2-13.4,11.2h-4.3v8.9h-8.6V52.2z M496.6,67.6
			c3.1,0,4.9-1.6,4.9-4v-0.1c0-2.7-1.9-4.1-5-4.1h-4v8.2H496.6z"/>
		<path class="st0" d="M511.2,69.6V52.2h8.8v17.3c0,4.5,2.3,6.6,5.7,6.6c3.5,0,5.7-2,5.7-6.4V52.2h8.8v17.3
			c0,10.1-5.7,14.5-14.6,14.5C516.8,83.9,511.2,79.4,511.2,69.6z"/>
		<path class="st0" d="M543.1,52.2h14.7c4.8,0,8,1.3,10.1,3.4c1.8,1.8,2.8,4.2,2.8,7.2v0.1c0,4.8-2.5,7.9-6.4,9.6l7.4,10.8h-10
			l-6.3-9.4h-3.8v9.4h-8.6V52.2L543.1,52.2z M557.4,67.1c2.9,0,4.6-1.4,4.6-3.7v-0.1c0-2.4-1.8-3.7-4.7-3.7h-5.7v7.5L557.4,67.1
			L557.4,67.1z"/>
		<path class="st0" d="M572.9,52.2h13.3c7.9,0,13,4,13,10.9v0.1c0,7.3-5.6,11.2-13.4,11.2h-4.3v8.9h-8.6L572.9,52.2L572.9,52.2z
			 M585.6,67.6c3.1,0,4.9-1.6,4.9-4v-0.1c0-2.7-1.9-4.1-5-4.1h-4v8.2H585.6z"/>
		<path class="st0" d="M599.5,67.8v-0.1c0-8.9,7.2-16.2,16.8-16.2c9.6,0,16.7,7.2,16.7,16.1v0.1c0,8.9-7.2,16.2-16.8,16.2
			C606.6,83.9,599.5,76.8,599.5,67.8z M624.2,67.8v-0.1c0-4.5-3.2-8.4-8-8.4c-4.7,0-7.9,3.8-7.9,8.3v0.1c0,4.5,3.2,8.4,8,8.4
			C621.1,76.1,624.2,72.3,624.2,67.8z"/>
		<path class="st0" d="M632.8,78.7l4.8-5.7c3.1,2.4,6.5,3.7,10.1,3.7c2.3,0,3.6-0.8,3.6-2.1v-0.1c0-1.3-1-2-5.2-3
			c-6.6-1.5-11.7-3.4-11.7-9.8v-0.1c0-5.8,4.6-10,12.1-10c5.3,0,9.4,1.4,12.8,4.1l-4.3,6.1c-2.8-2-6-3.1-8.7-3.1
			c-2.1,0-3.1,0.9-3.1,2v0.1c0,1.4,1.1,2,5.4,3c7.2,1.6,11.6,3.9,11.6,9.7v0.1c0,6.4-5,10.1-12.6,10.1
			C641.8,83.8,636.6,82.1,632.8,78.7z"/>
		<path class="st0" d="M661.9,52.2h25v7.3h-16.5v4.7h14.9V71h-14.9v4.9h16.7v7.3h-25.3L661.9,52.2L661.9,52.2z"/>
	</g>
	<g>
		<path class="st0" d="M706.6,60h-9.3v-7.6h27.3V60h-9.3v23.6h-8.6V60z"/>
		<path class="st0" d="M723.8,68.1V68c0-8.9,7.2-16.2,16.8-16.2c9.6,0,16.7,7.2,16.7,16.1V68c0,8.9-7.2,16.2-16.8,16.2
			C730.9,84.2,723.8,77,723.8,68.1z M748.5,68.1V68c0-4.5-3.2-8.4-8-8.4c-4.7,0-7.9,3.8-7.9,8.3V68c0,4.5,3.2,8.4,8,8.4
			C745.3,76.4,748.5,72.6,748.5,68.1z"/>
		<path class="st0" d="M769.7,52.4H783c7.9,0,12.9,4,12.9,10.9v0.1c0,7.3-5.6,11.2-13.4,11.2h-4.3v8.9h-8.6V52.4L769.7,52.4z
			 M782.4,67.9c3.1,0,4.9-1.6,4.9-4v-0.1c0-2.7-1.9-4.1-5-4.1h-4v8.2H782.4z"/>
		<path class="st0" d="M797.4,52.4h14.7c4.7,0,8,1.3,10.1,3.4c1.8,1.8,2.7,4.2,2.7,7.2v0.1c0,4.8-2.5,7.9-6.4,9.6l7.4,10.8h-10
			l-6.3-9.4H806v9.4h-8.6L797.4,52.4L797.4,52.4z M811.7,67.3c2.9,0,4.6-1.4,4.6-3.7v-0.1c0-2.4-1.8-3.7-4.7-3.7H806v7.5L811.7,67.3
			L811.7,67.3z"/>
		<path class="st0" d="M826.1,68.1V68c0-8.9,7.2-16.2,16.8-16.2c9.6,0,16.7,7.2,16.7,16.1V68c0,8.9-7.2,16.2-16.8,16.2
			C833.2,84.2,826.1,77,826.1,68.1z M850.8,68.1V68c0-4.5-3.2-8.4-8-8.4c-4.7,0-7.9,3.8-7.9,8.3V68c0,4.5,3.3,8.4,8,8.4
			C847.7,76.4,850.8,72.6,850.8,68.1z"/>
		<path class="st0" d="M861.9,52.4h24.9V60h-16.3v5.3h14.7v7.2h-14.7v11.1h-8.6V52.4z"/>
		<path class="st0" d="M888.7,52.4h8.7v31.1h-8.7V52.4z"/>
		<path class="st0" d="M908.5,60h-9.3v-7.6h27.3V60h-9.3v23.6h-8.6V60z"/>
	</g>
</g>
</svg>
