<svg width="100" height="31" viewBox="0 0 100 31" fill="none" xmlns="http://www.w3.org/2000/svg">
<path d="M49.0709 21.0313C48.4405 21.0313 48.2415 20.7337 48.2415 19.8078V10.681C48.2415 8.9284 47.4452 7.50647 45.919 6.61363C44.6582 5.85306 42.8997 5.42318 40.9754 5.42318C38.7192 5.42318 36.8612 5.85306 35.4678 6.67976C33.7756 7.70488 32.8798 9.29215 32.7471 11.4416V11.5738H36.9608V11.4746C37.1267 9.72203 38.487 8.76306 40.7763 8.76306C41.7717 8.76306 42.5679 8.89533 43.1652 9.19294C43.9614 9.55669 44.3596 10.185 44.3596 11.0778C44.3596 12.7974 42.9329 12.9627 40.9754 13.1942C40.3782 13.2603 39.7478 13.3265 39.1174 13.4587C37.4253 13.6571 35.7 13.9217 34.406 14.7153C32.8798 15.6082 32.1499 17.0632 32.1499 19.1134C32.1499 22.7839 35.2687 24.4043 38.3543 24.4043C40.2455 24.4043 42.8002 23.8752 44.4591 22.3541C44.7909 23.7429 45.7863 24.4043 47.5779 24.4043L50.1658 24.3712V30.4888H54.3131V21.7588C54.8772 22.5855 55.7398 23.2469 56.8015 23.7099C57.8301 24.1397 58.9913 24.3712 60.2189 24.3712C62.6741 24.3712 64.7312 23.3792 66.1247 21.4943C67.3523 19.8409 68.0159 17.5261 68.0159 14.9799C68.0159 12.2352 67.2859 9.92044 65.9256 8.23397C64.4326 6.38215 62.2428 5.42318 59.5553 5.42318C58.3277 5.42318 57.2328 5.65465 56.3038 6.11761C55.3748 6.58056 54.6117 7.24192 54.0809 8.13476V5.9192H50.1326V21.0975L49.0709 21.0313ZM44.0942 17.7907C44.0942 19.1134 43.2647 19.907 42.6011 20.3038C41.838 20.7668 40.7763 21.0313 39.8141 21.0313C38.5202 21.0313 36.2972 20.5684 36.2972 18.8819C36.2972 16.8317 37.8566 16.3026 39.416 16.038C39.9137 15.9388 40.4113 15.9058 40.909 15.8396C42.1034 15.7074 43.2315 15.5751 44.0942 15.0791V17.7907ZM59.0577 21.0313C56.1048 21.0313 54.1804 18.6174 54.1804 14.8807C54.1804 10.9456 55.9721 8.69692 59.0577 8.69692C62.3755 8.69692 63.8685 11.9045 63.8685 14.8807C63.8685 17.8899 62.6078 21.0313 59.0577 21.0313ZM68.978 23.8752H73.1253V5.88613H68.978V23.8752ZM68.978 3.96818H73.1253V0H68.978V3.96818ZM88.3211 14.7153C87.193 13.8886 85.6668 13.4918 84.3397 13.1611C83.9747 13.095 83.6097 12.9958 83.278 12.9296C80.7896 12.4336 78.633 12.0037 78.633 10.4165C78.633 8.82919 81.0218 8.69692 81.7517 8.69692C83.842 8.69692 84.9369 9.42442 85.2687 10.9786L85.3018 11.0778H89.615V10.9456C89.416 9.06067 88.5201 7.60567 87.0271 6.6467C85.7663 5.81999 84.0411 5.39011 82.0503 5.39011C80.9555 5.39011 78.832 5.52238 77.0404 6.48136C75.3483 7.3742 74.4857 8.79613 74.4857 10.5818C74.4857 14.2193 77.2726 15.3105 80.2919 15.9388C80.7232 16.038 81.1213 16.1373 81.5527 16.2034C83.9083 16.6994 85.9654 17.1293 86.0318 18.7827C86.0649 19.2787 85.8991 19.7086 85.6004 20.0393C84.8042 20.866 83.1121 20.9983 82.1831 20.9983C79.7942 20.9983 78.4671 20.0062 78.268 18.0221V17.9229H74.1207V18.0552C74.187 20.1054 74.9502 21.7258 76.4764 22.817C77.8699 23.8421 79.8274 24.3712 82.1499 24.3712C84.2401 24.3712 86.1645 23.9083 87.5912 23.0485C89.3164 22.0234 90.2454 20.4361 90.2454 18.4851C90.1791 16.8648 89.5819 15.6082 88.3211 14.7153Z" fill="#20264D"/>
<path d="M26.3437 23.1808L13.1719 30.7534L0 23.1808V8.00254L13.1719 0.429932L26.3437 8.00254V23.1808ZM12.3756 14.7815C9.48905 14.9468 5.77306 15.8066 4.37956 16.7656C2.75381 17.8899 2.38885 20.0393 3.5501 21.5935C4.71135 23.1478 7.00066 23.5115 8.62641 22.4203C10.0199 21.4613 11.6788 18.3198 12.9728 15.972C14.2004 17.9891 16.7551 21.9242 18.1818 22.7509C19.9071 23.776 22.1964 23.28 23.2249 21.6266C24.2867 19.9732 23.7226 17.8238 21.9973 16.8317C20.5375 15.972 16.357 14.8476 13.6695 14.7484C14.7644 12.7313 16.7551 8.86231 16.7883 7.44038C16.8215 5.52243 15.1957 3.93516 13.205 3.90209C11.1812 3.86902 9.52223 5.39015 9.48905 7.27504C9.45587 8.69697 11.3139 12.6982 12.3756 14.7815Z" fill="#20264D"/>
<path d="M93.7623 20.8658C93.7623 21.2957 93.8287 21.6264 93.9946 21.8909C94.2932 22.387 94.824 22.6515 95.6203 22.6515C96.118 22.6515 96.5162 22.5192 96.8811 22.2547C97.2461 21.9902 97.412 21.5933 97.412 21.0642C97.412 20.3698 97.0802 19.9399 96.4166 19.7085C96.0517 19.5762 95.4213 19.51 94.625 19.51V18.055C95.4213 18.055 95.9853 17.9889 96.3171 17.8566C96.8811 17.6582 97.1465 17.2614 97.1465 16.6331C97.1465 16.2363 97.0138 15.9056 96.7152 15.6741C96.4498 15.4096 96.0517 15.3104 95.5208 15.3104C94.9236 15.3104 94.5254 15.4757 94.2268 15.7733C93.9614 16.071 93.8287 16.5008 93.8287 16.9969H91.5062C91.5394 16.4678 91.6389 16.0048 91.838 15.5419C92.0371 15.145 92.3688 14.7482 92.8002 14.4176C93.1319 14.1861 93.4969 13.9877 93.9614 13.8554C94.3927 13.7231 94.9568 13.657 95.5872 13.657C96.7816 13.657 97.7438 13.9215 98.5069 14.4176C99.2368 14.9466 99.6018 15.608 99.6018 16.5008C99.6018 17.0961 99.3695 17.6252 98.9382 18.055C98.6728 18.3196 98.3742 18.4849 98.0755 18.5841C98.3078 18.5841 98.6396 18.7495 99.0377 19.0802C99.6681 19.5762 99.9999 20.2375 99.9999 21.0642C99.9999 21.9571 99.6349 22.7176 98.905 23.379C98.1751 24.0404 97.0802 24.3711 95.6203 24.3711C93.8287 24.3711 92.6011 23.875 91.9043 22.9161C91.5394 22.42 91.3403 21.7256 91.3071 20.8989H93.7623V20.8658Z" fill="#20264D"/>
</svg>
