<?xml version="1.0" encoding="utf-8"?>
<!-- Generator: Adobe Illustrator 21.0.2, SVG Export Plug-In . SVG Version: 6.00 Build 0)  -->
<svg version="1.1" id="Layer_1" xmlns="http://www.w3.org/2000/svg" xmlns:xlink="http://www.w3.org/1999/xlink" x="0px" y="0px"
	 viewBox="0 0 154 20" style="enable-background:new 0 0 154 20;" xml:space="preserve">
<style type="text/css">
	.st0{fill:#FFFFFF;}
</style>
<path class="st0" d="M26.9,13c-0.3,0-0.4-0.1-0.4-0.6V8.1c0-0.8-0.4-1.5-1.1-1.9c-0.6-0.4-1.4-0.6-2.3-0.6c-1.1,0-1.9,0.2-2.6,0.6
	c-0.8,0.5-1.2,1.2-1.3,2.2v0.1h1.9V8.4C21.3,7.7,22,7.2,23,7.2c0.5,0,0.8,0.1,1.1,0.2c0.4,0.2,0.6,0.5,0.6,0.9c0,0.8-0.7,0.9-1.6,1
	c-0.3,0-0.6,0.1-0.9,0.1C21.4,9.5,20.6,9.6,20,10c-0.7,0.4-1,1.1-1,2.1c0,1.7,1.5,2.5,2.9,2.5c0.9,0,2.1-0.3,2.8-1
	c0.2,0.7,0.6,1,1.4,1h1.2v2.9h1.9v-4.1c0.3,0.4,0.7,0.7,1.2,0.9s1,0.3,1.6,0.3c1.2,0,2.1-0.5,2.8-1.3c0.6-0.8,0.9-1.9,0.9-3
	c0-1.3-0.3-2.4-1-3.2c-0.7-0.9-1.7-1.3-3-1.3c-0.6,0-1.1,0.1-1.5,0.3c-0.4,0.2-0.8,0.5-1,0.9V6h-1.8v7H26.9z M24.6,11.4
	c0,0.6-0.4,1-0.7,1.2C23.5,12.8,23,13,22.6,13C22,13,21,12.8,21,12c0-1,0.7-1.2,1.5-1.3c0.2,0,0.5-0.1,0.7-0.1
	c0.6-0.1,1.1-0.1,1.5-0.4L24.6,11.4L24.6,11.4z M31.6,13c-1.4,0-2.3-1.1-2.3-2.9s0.8-2.9,2.3-2.9c1.5,0,2.2,1.5,2.2,2.9
	S33.2,13,31.6,13z M36.2,14.3h1.9V5.9h-1.9V14.3z M36.2,5h1.9V3.1h-1.9V5z M45.2,10c-0.5-0.4-1.2-0.6-1.9-0.7
	c-0.2,0-0.3-0.1-0.5-0.1C41.6,9,40.6,8.8,40.6,8c0-0.7,1.1-0.8,1.5-0.8c1,0,1.5,0.3,1.6,1.1l0,0h2V8.2c-0.1-0.9-0.5-1.6-1.2-2
	c-0.6-0.4-1.4-0.6-2.3-0.6c-0.5,0-1.5,0.1-2.3,0.5S38.7,7.2,38.7,8c0,1.7,1.3,2.2,2.7,2.5c0.2,0,0.4,0.1,0.6,0.1
	c1.1,0.2,2.1,0.4,2.1,1.2c0,0.2-0.1,0.4-0.2,0.6c-0.4,0.4-1.2,0.4-1.6,0.4c-1.1,0-1.7-0.5-1.8-1.4l0,0h-1.9v0.1c0,1,0.4,1.7,1.1,2.2
	c0.6,0.5,1.6,0.7,2.6,0.7s1.9-0.2,2.5-0.6c0.8-0.5,1.2-1.2,1.2-2.1C46.1,11,45.8,10.4,45.2,10z"/>
<path class="st0" d="M16.3,14l-6.1,3.5L4,14V6.9l6.1-3.5l6.1,3.5L16.3,14L16.3,14z M9.8,10c-1.3,0.1-3.1,0.5-3.7,0.9
	c-0.8,0.5-0.9,1.5-0.4,2.3s1.6,0.9,2.3,0.4c0.7-0.4,1.4-1.9,2-3l0,0l0,0l0,0c0.6,0.9,1.8,2.8,2.4,3.2c0.8,0.5,1.9,0.2,2.4-0.5
	c0.5-0.8,0.2-1.8-0.6-2.3c-0.7-0.4-2.6-0.9-3.9-1l0,0c0.5-0.9,1.4-2.8,1.5-3.4c0-0.9-0.7-1.6-1.7-1.7c-0.9,0-1.7,0.7-1.7,1.6
	C8.4,7.2,9.3,9.1,9.8,10"/>
<g>
	<path class="st0" d="M47.7,12.9c0,0.2,0,0.4,0.1,0.5c0.1,0.2,0.4,0.4,0.8,0.4c0.2,0,0.4-0.1,0.6-0.2c0.2-0.1,0.3-0.3,0.3-0.6
		s-0.2-0.5-0.5-0.6c-0.2-0.1-0.5-0.1-0.8-0.1v-0.7c0.4,0,0.6,0,0.8-0.1c0.3-0.1,0.4-0.3,0.4-0.6c0-0.2-0.1-0.3-0.2-0.5
		c-0.1-0.1-0.3-0.2-0.6-0.2s-0.5,0.1-0.6,0.2c-0.1,0.1-0.2,0.3-0.2,0.6h-1.1c0-0.2,0.1-0.5,0.1-0.7c0.1-0.2,0.2-0.4,0.4-0.5
		c0.1-0.1,0.3-0.2,0.5-0.3s0.5-0.1,0.8-0.1c0.6,0,1,0.1,1.4,0.4c0.3,0.2,0.5,0.6,0.5,1c0,0.3-0.1,0.5-0.3,0.7
		c-0.1,0.1-0.3,0.2-0.4,0.3c0.1,0,0.3,0.1,0.5,0.2c0.3,0.2,0.4,0.5,0.4,0.9s-0.2,0.8-0.5,1.1s-0.9,0.5-1.5,0.5
		c-0.8,0-1.4-0.2-1.7-0.7c-0.2-0.2-0.3-0.6-0.3-0.9L47.7,12.9L47.7,12.9z"/>
</g>
<g>
	<path class="st0" d="M55.5,9.4h4.1v1.2h-2.7v0.9h2.4v1.2h-2.4v1.8h-1.4C55.5,14.5,55.5,9.4,55.5,9.4z"/>
	<path class="st0" d="M59.9,9.4h2.4c0.8,0,1.3,0.2,1.7,0.6c0.3,0.3,0.5,0.7,0.5,1.2l0,0c0,0.8-0.4,1.3-1.1,1.6l1.2,1.8H63l-1-1.5
		h-0.6v1.5H60L59.9,9.4L59.9,9.4z M62.2,11.9c0.5,0,0.8-0.2,0.8-0.6l0,0c0-0.4-0.3-0.6-0.8-0.6h-0.9v1.2L62.2,11.9L62.2,11.9z"/>
	<path class="st0" d="M64.6,12L64.6,12c0-1.5,1.2-2.7,2.8-2.7s2.7,1.2,2.7,2.6l0,0c0,1.5-1.2,2.7-2.8,2.7S64.6,13.5,64.6,12z
		 M68.6,12L68.6,12c0-0.8-0.5-1.4-1.3-1.4S66,11.2,66,12l0,0c0,0.7,0.5,1.4,1.3,1.4S68.6,12.7,68.6,12z"/>
	<path class="st0" d="M70.5,9.4H72l1.2,2l1.2-2h1.5v5.1h-1.4v-2.9l-1.3,2l0,0l-1.3-2v2.9h-1.4L70.5,9.4L70.5,9.4z"/>
	<path class="st0" d="M78.1,9.4h2.2c1.3,0,2.1,0.7,2.1,1.8l0,0c0,1.2-0.9,1.8-2.2,1.8h-0.7v1.5h-1.4V9.4z M80.2,12
		c0.5,0,0.8-0.3,0.8-0.7l0,0c0-0.4-0.3-0.7-0.8-0.7h-0.7V12H80.2z"/>
	<path class="st0" d="M82.6,12.3V9.4H84v2.8c0,0.7,0.4,1.1,0.9,1.1c0.6,0,0.9-0.3,0.9-1.1V9.4h1.4v2.8c0,1.6-0.9,2.4-2.4,2.4
		C83.5,14.6,82.6,13.9,82.6,12.3z"/>
	<path class="st0" d="M87.8,9.4h2.4c0.8,0,1.3,0.2,1.7,0.6c0.3,0.3,0.5,0.7,0.5,1.2l0,0c0,0.8-0.4,1.3-1.1,1.6l1.2,1.8h-1.6l-1-1.5
		h-0.6v1.5h-1.4L87.8,9.4L87.8,9.4z M90.2,11.9c0.5,0,0.8-0.2,0.8-0.6l0,0c0-0.4-0.3-0.6-0.8-0.6h-0.9v1.2L90.2,11.9L90.2,11.9z"/>
	<path class="st0" d="M92.7,9.4h2.2c1.3,0,2.1,0.7,2.1,1.8l0,0c0,1.2-0.9,1.8-2.2,1.8h-0.7v1.5h-1.4V9.4L92.7,9.4z M94.8,12
		c0.5,0,0.8-0.3,0.8-0.7l0,0c0-0.4-0.3-0.7-0.8-0.7h-0.7V12H94.8z"/>
	<path class="st0" d="M97.1,12L97.1,12c0-1.5,1.2-2.7,2.8-2.7c1.6,0,2.7,1.2,2.7,2.6l0,0c0,1.5-1.2,2.7-2.8,2.7
		C98.2,14.6,97.1,13.5,97.1,12z M101.1,12L101.1,12c0-0.8-0.5-1.4-1.3-1.4s-1.3,0.6-1.3,1.4l0,0c0,0.7,0.5,1.4,1.3,1.4
		S101.1,12.7,101.1,12z"/>
	<path class="st0" d="M102.5,13.8l0.8-0.9c0.5,0.4,1.1,0.6,1.7,0.6c0.4,0,0.6-0.1,0.6-0.4l0,0c0-0.2-0.2-0.3-0.9-0.5
		c-1.1-0.2-1.9-0.6-1.9-1.6l0,0c0-0.9,0.8-1.6,2-1.6c0.9,0,1.5,0.2,2.1,0.7l-0.7,1c-0.5-0.3-1-0.5-1.4-0.5c-0.3,0-0.5,0.1-0.5,0.3
		l0,0c0,0.2,0.2,0.3,0.9,0.5c1.2,0.3,1.9,0.6,1.9,1.6l0,0c0,1-0.8,1.7-2.1,1.7C104,14.6,103.2,14.3,102.5,13.8z"/>
	<path class="st0" d="M107.3,9.4h4.1v1.2h-2.7v0.8h2.5v1.1h-2.5v0.8h2.7v1.2h-4.1V9.4L107.3,9.4z"/>
	<path class="st0" d="M114.7,10.7h-1.5V9.4h4.5v1.2h-1.5v3.9h-1.4L114.7,10.7L114.7,10.7z"/>
	<path class="st0" d="M117.5,12L117.5,12c0-1.5,1.2-2.7,2.8-2.7s2.7,1.2,2.7,2.6l0,0c0,1.5-1.2,2.7-2.8,2.7
		C118.7,14.6,117.5,13.5,117.5,12z M121.6,12L121.6,12c0-0.8-0.5-1.4-1.3-1.4S119,11.2,119,12l0,0c0,0.7,0.5,1.4,1.3,1.4
		S121.6,12.7,121.6,12z"/>
	<path class="st0" d="M125.1,9.4h2.2c1.3,0,2.1,0.7,2.1,1.8l0,0c0,1.2-0.9,1.8-2.2,1.8h-0.7v1.5h-1.4V9.4L125.1,9.4z M127.2,12
		c0.5,0,0.8-0.3,0.8-0.7l0,0c0-0.4-0.3-0.7-0.8-0.7h-0.7V12H127.2z"/>
	<path class="st0" d="M129.6,9.4h2.4c0.8,0,1.3,0.2,1.7,0.6c0.3,0.3,0.5,0.7,0.5,1.2l0,0c0,0.8-0.4,1.3-1.1,1.6l1.2,1.8h-1.6l-1-1.5
		H131v1.5h-1.4V9.4L129.6,9.4z M132,11.9c0.5,0,0.8-0.2,0.8-0.6l0,0c0-0.4-0.3-0.6-0.8-0.6h-1v1.2L132,11.9L132,11.9z"/>
	<path class="st0" d="M134.3,12L134.3,12c0-1.5,1.2-2.7,2.8-2.7s2.7,1.2,2.7,2.6l0,0c0,1.5-1.2,2.7-2.8,2.7S134.3,13.5,134.3,12z
		 M138.4,12L138.4,12c0-0.8-0.5-1.4-1.3-1.4s-1.3,0.6-1.3,1.4l0,0c0,0.7,0.5,1.4,1.3,1.4S138.4,12.7,138.4,12z"/>
	<path class="st0" d="M140.2,9.4h4.1v1.2h-2.7v0.9h2.4v1.2h-2.4v1.8h-1.4L140.2,9.4L140.2,9.4z"/>
	<path class="st0" d="M144.6,9.4h1.4v5.1h-1.4V9.4z"/>
	<path class="st0" d="M147.8,10.7h-1.5V9.4h4.5v1.2h-1.5v3.9h-1.4v-3.8H147.8z"/>
</g>
</svg>
