<svg xmlns="http://www.w3.org/2000/svg" viewBox="0 0 154 20"><path d="M26.9 13c-.3 0-.4-.1-.4-.6V8.1c0-.8-.4-1.5-1.1-1.9-.6-.4-1.4-.6-2.3-.6-1.1 0-1.9.2-2.6.6-.8.5-1.2 1.2-1.3 2.2v.1h1.9v-.1c.2-.7.9-1.2 1.9-1.2.5 0 .8.1 1.1.2.4.2.6.5.6.9 0 .8-.7.9-1.6 1-.3 0-.6.1-.9.1-.8.1-1.6.2-2.2.6-.7.4-1 1.1-1 2.1 0 1.7 1.5 2.5 2.9 2.5.9 0 2.1-.3 2.8-1 .2.7.6 1 1.4 1h1.2v2.9h1.9v-4.1c.3.4.7.7 1.2.9s1 .3 1.6.3c1.2 0 2.1-.5 2.8-1.3.6-.8.9-1.9.9-3 0-1.3-.3-2.4-1-3.2-.7-.9-1.7-1.3-3-1.3-.6 0-1.1.1-1.5.3-.4.2-.8.5-1 .9V6h-1.8v7h-.5zm-2.3-1.6c0 .6-.4 1-.7 1.2-.4.2-.9.4-1.3.4-.6 0-1.6-.2-1.6-1 0-1 .7-1.2 1.5-1.3.2 0 .5-.1.7-.1.6-.1 1.1-.1 1.5-.4l-.1 1.2zm7 1.6c-1.4 0-2.3-1.1-2.3-2.9s.8-2.9 2.3-2.9c1.5 0 2.2 1.5 2.2 2.9s-.6 2.9-2.2 2.9zm4.6 1.3h1.9V5.9h-1.9v8.4zm0-9.3h1.9V3.1h-1.9V5zm9 5c-.5-.4-1.2-.6-1.9-.7-.2 0-.3-.1-.5-.1-1.2-.2-2.2-.4-2.2-1.2 0-.7 1.1-.8 1.5-.8 1 0 1.5.3 1.6 1.1h2v-.1c-.1-.9-.5-1.6-1.2-2-.6-.4-1.4-.6-2.3-.6-.5 0-1.5.1-2.3.5S38.7 7.2 38.7 8c0 1.7 1.3 2.2 2.7 2.5.2 0 .4.1.6.1 1.1.2 2.1.4 2.1 1.2 0 .2-.1.4-.2.6-.4.4-1.2.4-1.6.4-1.1 0-1.7-.5-1.8-1.4h-1.9v.1c0 1 .4 1.7 1.1 2.2.6.5 1.6.7 2.6.7s1.9-.2 2.5-.6c.8-.5 1.2-1.2 1.2-2.1.1-.7-.2-1.3-.8-1.7zm-28.9 4l-6.1 3.5L4 14V6.9l6.1-3.5 6.1 3.5.1 7.1zm-6.5-4c-1.3.1-3.1.5-3.7.9-.8.5-.9 1.5-.4 2.3s1.6.9 2.3.4c.7-.4 1.4-1.9 2-3 .6.9 1.8 2.8 2.4 3.2.8.5 1.9.2 2.4-.5.5-.8.2-1.8-.6-2.3-.7-.4-2.6-.9-3.9-1 .5-.9 1.4-2.8 1.5-3.4 0-.9-.7-1.6-1.7-1.7-.9 0-1.7.7-1.7 1.6 0 .7.9 2.6 1.4 3.5m37.9 2.9c0 .2 0 .4.1.5.1.2.4.4.8.4.2 0 .4-.1.6-.2.2-.1.3-.3.3-.6s-.2-.5-.5-.6c-.2-.1-.5-.1-.8-.1v-.7c.4 0 .6 0 .8-.1.3-.1.4-.3.4-.6 0-.2-.1-.3-.2-.5-.1-.1-.3-.2-.6-.2s-.5.1-.6.2c-.1.1-.2.3-.2.6h-1.1c0-.2.1-.5.1-.7.1-.2.2-.4.4-.5.1-.1.3-.2.5-.3s.5-.1.8-.1c.6 0 1 .1 1.4.4.3.2.5.6.5 1 0 .3-.1.5-.3.7-.1.1-.3.2-.4.3.1 0 .3.1.5.2.3.2.4.5.4.9s-.2.8-.5 1.1-.9.5-1.5.5c-.8 0-1.4-.2-1.7-.7-.2-.2-.3-.6-.3-.9h1.1zm7.8-3.5h4.1v1.2h-2.7v.9h2.4v1.2h-2.4v1.8h-1.4V9.4zm4.4 0h2.4c.8 0 1.3.2 1.7.6.3.3.5.7.5 1.2 0 .8-.4 1.3-1.1 1.6l1.2 1.8H63l-1-1.5h-.6v1.5H60l-.1-5.2zm2.3 2.5c.5 0 .8-.2.8-.6 0-.4-.3-.6-.8-.6h-.9v1.2h.9zm2.4.1c0-1.5 1.2-2.7 2.8-2.7s2.7 1.2 2.7 2.6c0 1.5-1.2 2.7-2.8 2.7s-2.7-1.1-2.7-2.6zm4 0c0-.8-.5-1.4-1.3-1.4S66 11.2 66 12c0 .7.5 1.4 1.3 1.4s1.3-.7 1.3-1.4zm1.9-2.6H72l1.2 2 1.2-2h1.5v5.1h-1.4v-2.9l-1.3 2-1.3-2v2.9h-1.4V9.4zm7.6 0h2.2c1.3 0 2.1.7 2.1 1.8 0 1.2-.9 1.8-2.2 1.8h-.7v1.5h-1.4V9.4zm2.1 2.6c.5 0 .8-.3.8-.7 0-.4-.3-.7-.8-.7h-.7V12h.7zm2.4.3V9.4H84v2.8c0 .7.4 1.1.9 1.1.6 0 .9-.3.9-1.1V9.4h1.4v2.8c0 1.6-.9 2.4-2.4 2.4-1.3 0-2.2-.7-2.2-2.3zm5.2-2.9h2.4c.8 0 1.3.2 1.7.6.3.3.5.7.5 1.2 0 .8-.4 1.3-1.1 1.6l1.2 1.8h-1.6l-1-1.5h-.6v1.5h-1.4l-.1-5.2zm2.4 2.5c.5 0 .8-.2.8-.6 0-.4-.3-.6-.8-.6h-.9v1.2h.9zm2.5-2.5h2.2c1.3 0 2.1.7 2.1 1.8 0 1.2-.9 1.8-2.2 1.8h-.7v1.5h-1.4V9.4zm2.1 2.6c.5 0 .8-.3.8-.7 0-.4-.3-.7-.8-.7h-.7V12h.7zm2.3 0c0-1.5 1.2-2.7 2.8-2.7 1.6 0 2.7 1.2 2.7 2.6 0 1.5-1.2 2.7-2.8 2.7-1.6 0-2.7-1.1-2.7-2.6zm4 0c0-.8-.5-1.4-1.3-1.4s-1.3.6-1.3 1.4c0 .7.5 1.4 1.3 1.4s1.3-.7 1.3-1.4zm1.4 1.8l.8-.9c.5.4 1.1.6 1.7.6.4 0 .6-.1.6-.4 0-.2-.2-.3-.9-.5-1.1-.2-1.9-.6-1.9-1.6 0-.9.8-1.6 2-1.6.9 0 1.5.2 2.1.7l-.7 1c-.5-.3-1-.5-1.4-.5-.3 0-.5.1-.5.3 0 .2.2.3.9.5 1.2.3 1.9.6 1.9 1.6s-.8 1.7-2.1 1.7c-1-.1-1.8-.4-2.5-.9zm4.8-4.4h4.1v1.2h-2.7v.8h2.5v1.1h-2.5v.8h2.7v1.2h-4.1V9.4zm7.4 1.3h-1.5V9.4h4.5v1.2h-1.5v3.9h-1.4l-.1-3.8zm2.8 1.3c0-1.5 1.2-2.7 2.8-2.7s2.7 1.2 2.7 2.6c0 1.5-1.2 2.7-2.8 2.7-1.5 0-2.7-1.1-2.7-2.6zm4.1 0c0-.8-.5-1.4-1.3-1.4s-1.3.6-1.3 1.4c0 .7.5 1.4 1.3 1.4s1.3-.7 1.3-1.4zm3.5-2.6h2.2c1.3 0 2.1.7 2.1 1.8 0 1.2-.9 1.8-2.2 1.8h-.7v1.5h-1.4V9.4zm2.1 2.6c.5 0 .8-.3.8-.7 0-.4-.3-.7-.8-.7h-.7V12h.7zm2.4-2.6h2.4c.8 0 1.3.2 1.7.6.3.3.5.7.5 1.2 0 .8-.4 1.3-1.1 1.6l1.2 1.8h-1.6l-1-1.5h-.7v1.5h-1.4V9.4zm2.4 2.5c.5 0 .8-.2.8-.6 0-.4-.3-.6-.8-.6h-1v1.2h1zm2.3.1c0-1.5 1.2-2.7 2.8-2.7s2.7 1.2 2.7 2.6c0 1.5-1.2 2.7-2.8 2.7s-2.7-1.1-2.7-2.6zm4.1 0c0-.8-.5-1.4-1.3-1.4s-1.3.6-1.3 1.4c0 .7.5 1.4 1.3 1.4s1.3-.7 1.3-1.4zm1.8-2.6h4.1v1.2h-2.7v.9h2.4v1.2h-2.4v1.8h-1.4V9.4zm4.4 0h1.4v5.1h-1.4V9.4zm3.2 1.3h-1.5V9.4h4.5v1.2h-1.5v3.9h-1.4v-3.8h-.1z" fill="#fff"/></svg>